# xmcd CD database file
#
# Track frame offsets:
#	150
#	25219
#	58451
#	97481
#	143511
#	174874
#	212348
#	235673
#	254950
#
# Disc length: 3663 seconds
#
# Revision: 0
# Processed by: cddbd v1.5PL3 Copyright (c) Steve Scherf et al.
# Submitted via: CDex 1.50
#
DISCID=810e4d09
DTITLE=Enrico Intra - Live!
DYEAR=2001
DGENRE=Jazz
TTITLE0=Rondò (take 1)
TTITLE1=Take the "A" train
TTITLE2=Per Donatoni
TTITLE3=I love you
TTITLE4=Bewitched
TTITLE5=Video blues
TTITLE6=Alle the things you are
TTITLE7=Rondò (take 2)
TTITLE8=Tribute to Bernstein
EXTD=YEAR: 2001
EXTT0=
EXTT1=
EXTT2=
EXTT3=
EXTT4=
EXTT5=
EXTT6=
EXTT7=
EXTT8=
PLAYORDER=
